<mxfile host="app.diagrams.net" modified="2024-03-24T10:31:10.736Z" agent="Mozilla/5.0 (Macintosh; Intel Mac OS X 10_15_7) AppleWebKit/537.36 (KHTML, like Gecko) Chrome/122.0.0.0 Safari/537.36" version="24.1.0" etag="oe7yw2ytowZ1k41-JIDh" type="github">
  <diagram name="第 1 页" id="mxfkxhekQcw_ESZEDTR8">
    <mxGraphModel>
      <root>
        <mxCell id="0" />
        <mxCell id="1" parent="0" />
      </root>
    </mxGraphModel>
  </diagram>
</mxfile>
